<svg xmlns="http://www.w3.org/2000/svg" height="48" viewBox="0 -960 960 960" width="48"><path d="M210.885-478.115q0 20.769 3.269 42.269t9.038 40.038q2.616 6.885.096 12.616-2.519 5.731-8.519 7.923-5.5 2.692-11.308.442-5.807-2.25-7.384-9.404-8.385-22.192-11.885-45.865-3.5-23.673-3.5-48.019 0-123.847 87.539-211.904 87.538-88.058 211.884-88.058h72.577l-81.615-82.5q-4.154-3.269-4.154-9.154 0-5.884 4.154-10.808 4.038-3.269 10.038-3.269t10.154 3.269l97.616 97.885q7.731 8.615 7.923 19.346.192 10.731-7.539 18.462l-97 97.769q-4.154 4.154-10.654 4.154t-10.538-4.154q-4.154-4.038-4.154-10.154 0-6.115 4.154-11.038l80.384-79.616h-71.346q-111.73 0-190.48 79.327-78.75 79.327-78.75 190.443Zm538.23-2.539q0-20.769-2.884-42.019-2.885-21.25-8.923-40.788-2.847-6.885-.327-12.231 2.519-5.347 8.519-8.423 5.5-3.462 10.558-.385 5.057 3.077 6.75 8.077 7.731 23.077 12.115 47.25 4.385 24.173 4.385 48.519 0 123.846-87.539 211.904-87.538 88.058-211.884 88.058h-73.039l81.731 81.615q3.269 4.154 3.654 10.039.384 5.884-3.654 9.153-4.923 4.924-10.539 4.924-5.615 0-9.653-4.924L370.654-177q-7.731-7.731-7.923-18.462-.193-10.73 8.423-20.115l97.231-97.231q3.269-3.269 9.269-3.654 6-.384 10.923 3.654 4.038 4.923 4.038 10.539 0 5.615-4.038 9.654l-81.731 81.73h73.039q111.73 0 190.48-79.327 78.75-79.326 78.75-190.442Z"/></svg>