<svg xmlns="http://www.w3.org/2000/svg" height="48" viewBox="0 -960 960 960" width="48"><path d="M435.654-332.5 350.846-417q-3.545-3.038-6.745-4.308-3.2-1.269-6.813-1.269-3.614 0-7.528 1.327-3.913 1.327-7.144 4.787-6.077 6.546-6.077 14.792 0 8.247 6.077 13.632l93.115 92.615q4.115 4.807 8.741 6.711 4.626 1.904 10.715 1.904 5.775 0 10.525-1.904t9.557-6.711l178.628-178.628q5.718-6.03 5.91-14.066.192-8.036-5.867-14.497-6.394-6.077-14.244-6.077t-14.311 6.077L435.654-332.5ZM238.848-103.078q-22.614 0-39.345-16.732-16.732-16.732-16.732-39.338v-641.704q0-22.606 16.732-39.338 16.731-16.732 39.421-16.732H562q11.732 0 22.135 4.654 10.404 4.654 18.714 11.862l157.339 157.582q7.926 8.285 12.484 18.627 4.557 10.341 4.557 22.004v482.961q0 22.69-16.732 39.422-16.731 16.732-39.345 16.732H238.848Zm324.614-570.73v-139.269H238.924q-4.615 0-8.462 3.847-3.846 3.846-3.846 8.462v641.536q0 4.616 3.846 8.462 3.847 3.847 8.462 3.847h482.152q4.615 0 8.462-3.847 3.846-3.846 3.846-8.462v-486.153H591.885q-11.865 0-20.144-8.279-8.279-8.279-8.279-20.144ZM226.616-813.077v167.692-167.692 666.154V-813.077Z"/></svg>